STARTFONT 2.1
FONT -FontForge-Upheaval TT (BRK)-Book-R-Normal--16-150-75-75-P-89-ISO10646-1
SIZE 15 75 75
FONTBOUNDINGBOX 15 15 -1 -3
COMMENT "Generated by fontforge, http://fontforge.sourceforge.net"
COMMENT "NIGMA FONTS   [e-mail]  kentpw@norwich.net"
STARTPROPERTIES 39
FOUNDRY "FontForge"
FAMILY_NAME "Upheaval TT (BRK)"
WEIGHT_NAME "Book"
SLANT "R"
SETWIDTH_NAME "Normal"
ADD_STYLE_NAME ""
PIXEL_SIZE 16
POINT_SIZE 150
RESOLUTION_X 75
RESOLUTION_Y 75
SPACING "P"
AVERAGE_WIDTH 89
CHARSET_REGISTRY "ISO10646"
CHARSET_ENCODING "1"
FONTNAME_REGISTRY ""
CHARSET_COLLECTIONS "ISO10646-1"
FONT_NAME "UpheavalTT-BRK-"
FACE_NAME "Upheaval TT -BRK-"
COPYRIGHT "NIGMA FONTS   [e-mail]  kentpw@norwich.net"
FONT_VERSION "2.09"
FONT_ASCENT 13
FONT_DESCENT 3
UNDERLINE_POSITION -2
UNDERLINE_THICKNESS 1
X_HEIGHT 7
CAP_HEIGHT 7
RAW_ASCENT 800
RAW_DESCENT 200
NORM_SPACE 6
RELATIVE_WEIGHT 40
RELATIVE_SETWIDTH 50
SUPERSCRIPT_X 0
SUPERSCRIPT_Y 2
SUPERSCRIPT_SIZE 1
SUBSCRIPT_X 0
SUBSCRIPT_Y 2
SUBSCRIPT_SIZE 1
AVG_LOWERCASE_WIDTH 97
AVG_UPPERCASE_WIDTH 99
ENDPROPERTIES
CHARS 228
STARTCHAR space
ENCODING 32
SWIDTH 350 0
DWIDTH 6 0
BBX 1 1 0 0
BITMAP
00
ENDCHAR
STARTCHAR exclam
ENCODING 33
SWIDTH 250 0
DWIDTH 4 0
BBX 3 8 0 0
BITMAP
E0
E0
E0
E0
E0
E0
E0
E0
ENDCHAR
STARTCHAR quotedbl
ENCODING 34
SWIDTH 400 0
DWIDTH 6 0
BBX 5 2 0 6
BITMAP
D8
D8
ENDCHAR
STARTCHAR numbersign
ENCODING 35
SWIDTH 600 0
DWIDTH 10 0
BBX 9 8 0 0
BITMAP
7700
FF80
FF80
7700
7700
FF80
FF80
7700
ENDCHAR
STARTCHAR dollar
ENCODING 36
SWIDTH 600 0
DWIDTH 10 0
BBX 8 9 0 -1
BITMAP
7F
FF
E0
FE
7F
07
FF
FE
18
ENDCHAR
STARTCHAR percent
ENCODING 37
SWIDTH 650 0
DWIDTH 10 0
BBX 9 8 0 0
BITMAP
6380
E780
EF80
1E00
1C00
3980
7B80
F380
ENDCHAR
STARTCHAR ampersand
ENCODING 38
SWIDTH 600 0
DWIDTH 10 0
BBX 8 9 0 -1
BITMAP
7F
FF
E0
F8
F8
E0
E3
7F
18
ENDCHAR
STARTCHAR quotesingle
ENCODING 39
SWIDTH 200 0
DWIDTH 3 0
BBX 2 2 0 6
BITMAP
C0
C0
ENDCHAR
STARTCHAR parenleft
ENCODING 40
SWIDTH 400 0
DWIDTH 6 0
BBX 5 8 0 0
BITMAP
78
F8
E0
E0
E0
E0
F8
78
ENDCHAR
STARTCHAR parenright
ENCODING 41
SWIDTH 400 0
DWIDTH 6 0
BBX 5 8 0 0
BITMAP
F0
F8
38
38
38
38
F8
F0
ENDCHAR
STARTCHAR asterisk
ENCODING 42
SWIDTH 500 0
DWIDTH 8 0
BBX 7 6 0 2
BITMAP
10
FA
FE
3C
6C
44
ENDCHAR
STARTCHAR plus
ENCODING 43
SWIDTH 600 0
DWIDTH 10 0
BBX 8 4 0 2
BITMAP
18
FF
FF
18
ENDCHAR
STARTCHAR comma
ENCODING 44
SWIDTH 200 0
DWIDTH 3 0
BBX 2 3 0 -2
BITMAP
C0
C0
C0
ENDCHAR
STARTCHAR minus
ENCODING 45
SWIDTH 600 0
DWIDTH 10 0
BBX 9 2 0 3
BITMAP
FF80
FF80
ENDCHAR
STARTCHAR period
ENCODING 46
SWIDTH 200 0
DWIDTH 3 0
BBX 2 2 0 0
BITMAP
C0
C0
ENDCHAR
STARTCHAR slash
ENCODING 47
SWIDTH 650 0
DWIDTH 10 0
BBX 10 8 0 0
BITMAP
03C0
03C0
0F00
1E00
3C00
3C00
F000
E000
ENDCHAR
STARTCHAR zero
ENCODING 48
SWIDTH 600 0
DWIDTH 10 0
BBX 9 8 0 0
BITMAP
7F00
FF80
E380
E380
E380
E380
FF80
7F00
ENDCHAR
STARTCHAR one
ENCODING 49
SWIDTH 250 0
DWIDTH 4 0
BBX 3 8 0 0
BITMAP
E0
E0
E0
E0
E0
E0
E0
E0
ENDCHAR
STARTCHAR two
ENCODING 50
SWIDTH 600 0
DWIDTH 10 0
BBX 9 8 0 0
BITMAP
FF00
FF80
0380
7F80
FF00
E000
FF80
FF80
ENDCHAR
STARTCHAR three
ENCODING 51
SWIDTH 600 0
DWIDTH 10 0
BBX 9 8 0 0
BITMAP
FF00
FF80
0380
0F00
0F00
0380
FF80
FF00
ENDCHAR
STARTCHAR four
ENCODING 52
SWIDTH 600 0
DWIDTH 10 0
BBX 9 8 0 0
BITMAP
E380
E380
E380
FF80
7F80
0380
0380
0380
ENDCHAR
STARTCHAR five
ENCODING 53
SWIDTH 600 0
DWIDTH 10 0
BBX 9 8 0 0
BITMAP
FF80
FF80
E000
FF00
7F80
0380
FF80
FF00
ENDCHAR
STARTCHAR six
ENCODING 54
SWIDTH 600 0
DWIDTH 10 0
BBX 9 8 0 0
BITMAP
7F80
FF80
E000
FF00
FF80
E380
FF80
7F00
ENDCHAR
STARTCHAR seven
ENCODING 55
SWIDTH 600 0
DWIDTH 10 0
BBX 9 8 0 0
BITMAP
FF80
FF80
0700
1E00
3C00
3C00
F000
E000
ENDCHAR
STARTCHAR eight
ENCODING 56
SWIDTH 600 0
DWIDTH 10 0
BBX 9 8 0 0
BITMAP
7F00
FF80
E380
7F00
7F00
E380
FF80
7F00
ENDCHAR
STARTCHAR nine
ENCODING 57
SWIDTH 600 0
DWIDTH 10 0
BBX 9 8 0 0
BITMAP
7F00
FF80
E380
FF80
7F80
0380
0380
0380
ENDCHAR
STARTCHAR colon
ENCODING 58
SWIDTH 200 0
DWIDTH 3 0
BBX 2 8 0 0
BITMAP
C0
C0
00
00
00
00
C0
C0
ENDCHAR
STARTCHAR semicolon
ENCODING 59
SWIDTH 200 0
DWIDTH 3 0
BBX 2 10 0 -2
BITMAP
C0
C0
00
00
00
00
00
C0
C0
C0
ENDCHAR
STARTCHAR less
ENCODING 60
SWIDTH 450 0
DWIDTH 7 0
BBX 6 8 0 0
BITMAP
1C
3C
70
F0
F0
70
3C
1C
ENDCHAR
STARTCHAR equal
ENCODING 61
SWIDTH 600 0
DWIDTH 10 0
BBX 9 6 0 1
BITMAP
FF80
FF80
0000
0000
FF80
FF80
ENDCHAR
STARTCHAR greater
ENCODING 62
SWIDTH 450 0
DWIDTH 7 0
BBX 6 8 0 0
BITMAP
E0
F0
38
3C
3C
38
F0
E0
ENDCHAR
STARTCHAR question
ENCODING 63
SWIDTH 600 0
DWIDTH 10 0
BBX 8 8 0 0
BITMAP
7E
FF
E7
0F
18
00
18
1C
ENDCHAR
STARTCHAR at
ENCODING 64
SWIDTH 700 0
DWIDTH 11 0
BBX 10 8 0 0
BITMAP
7F80
FFC0
E1C0
EFC0
EBC0
EF80
FFC0
7FC0
ENDCHAR
STARTCHAR A
ENCODING 65
SWIDTH 600 0
DWIDTH 10 0
BBX 9 8 0 0
BITMAP
7F00
FF80
E380
FF80
FF80
E380
E380
E380
ENDCHAR
STARTCHAR B
ENCODING 66
SWIDTH 600 0
DWIDTH 10 0
BBX 9 8 0 0
BITMAP
FF00
FF80
E380
FF00
FF00
E380
FF80
FF00
ENDCHAR
STARTCHAR C
ENCODING 67
SWIDTH 600 0
DWIDTH 10 0
BBX 9 8 0 0
BITMAP
7F00
FF80
E380
E000
E000
E380
FF80
7F00
ENDCHAR
STARTCHAR D
ENCODING 68
SWIDTH 600 0
DWIDTH 10 0
BBX 9 8 0 0
BITMAP
FF00
FF00
E780
E380
E380
E780
FF00
FE00
ENDCHAR
STARTCHAR E
ENCODING 69
SWIDTH 600 0
DWIDTH 10 0
BBX 9 8 0 0
BITMAP
7F80
FF80
E000
F800
F800
E000
FF80
7F80
ENDCHAR
STARTCHAR F
ENCODING 70
SWIDTH 600 0
DWIDTH 10 0
BBX 9 8 0 0
BITMAP
7F80
FF80
E000
F800
F800
E000
E000
E000
ENDCHAR
STARTCHAR G
ENCODING 71
SWIDTH 600 0
DWIDTH 10 0
BBX 9 8 0 0
BITMAP
7F80
FF80
E000
EF00
EF80
E380
FF80
7F00
ENDCHAR
STARTCHAR H
ENCODING 72
SWIDTH 600 0
DWIDTH 10 0
BBX 9 8 0 0
BITMAP
E380
E380
E380
FF80
FF80
E380
E380
E380
ENDCHAR
STARTCHAR I
ENCODING 73
SWIDTH 550 0
DWIDTH 9 0
BBX 7 8 0 0
BITMAP
FE
FE
38
38
38
38
FE
FE
ENDCHAR
STARTCHAR J
ENCODING 74
SWIDTH 600 0
DWIDTH 10 0
BBX 9 8 0 0
BITMAP
0380
0380
0380
0380
0380
E380
FF80
7F00
ENDCHAR
STARTCHAR K
ENCODING 75
SWIDTH 650 0
DWIDTH 10 0
BBX 9 8 0 0
BITMAP
E780
E780
FF00
FE00
FE00
FF00
E780
E780
ENDCHAR
STARTCHAR L
ENCODING 76
SWIDTH 600 0
DWIDTH 10 0
BBX 9 8 0 0
BITMAP
E000
E000
E000
E000
E000
E000
FF80
FF80
ENDCHAR
STARTCHAR M
ENCODING 77
SWIDTH 700 0
DWIDTH 11 0
BBX 10 8 0 0
BITMAP
E1C0
F3C0
FFC0
FFC0
EDC0
E9C0
E1C0
E1C0
ENDCHAR
STARTCHAR N
ENCODING 78
SWIDTH 600 0
DWIDTH 10 0
BBX 9 8 0 0
BITMAP
E380
F380
FF80
FF80
EF80
E780
E380
E380
ENDCHAR
STARTCHAR O
ENCODING 79
SWIDTH 600 0
DWIDTH 10 0
BBX 9 8 0 0
BITMAP
7F00
FF80
E380
E380
E380
E380
FF80
7F00
ENDCHAR
STARTCHAR P
ENCODING 80
SWIDTH 600 0
DWIDTH 10 0
BBX 9 8 0 0
BITMAP
FF00
FF80
E380
FF80
FF00
E000
E000
E000
ENDCHAR
STARTCHAR Q
ENCODING 81
SWIDTH 600 0
DWIDTH 10 0
BBX 8 10 0 -2
BITMAP
7E
FF
E7
E7
E7
E7
E7
7E
18
18
ENDCHAR
STARTCHAR R
ENCODING 82
SWIDTH 600 0
DWIDTH 10 0
BBX 9 8 0 0
BITMAP
FF00
FF80
E380
FF00
FF00
E380
E380
E380
ENDCHAR
STARTCHAR S
ENCODING 83
SWIDTH 600 0
DWIDTH 10 0
BBX 9 8 0 0
BITMAP
7F80
FF80
E000
FF00
7F80
0380
FF80
FF00
ENDCHAR
STARTCHAR T
ENCODING 84
SWIDTH 550 0
DWIDTH 9 0
BBX 7 8 0 0
BITMAP
FE
FE
38
38
38
38
38
38
ENDCHAR
STARTCHAR U
ENCODING 85
SWIDTH 600 0
DWIDTH 10 0
BBX 9 8 0 0
BITMAP
E380
E380
E380
E380
E380
E380
FF80
7F00
ENDCHAR
STARTCHAR V
ENCODING 86
SWIDTH 600 0
DWIDTH 10 0
BBX 9 8 0 0
BITMAP
E380
E380
E380
E380
E780
EF00
FE00
FC00
ENDCHAR
STARTCHAR W
ENCODING 87
SWIDTH 700 0
DWIDTH 11 0
BBX 10 8 0 0
BITMAP
E1C0
E1C0
E9C0
EDC0
FFC0
FFC0
F3C0
E1C0
ENDCHAR
STARTCHAR X
ENCODING 88
SWIDTH 600 0
DWIDTH 10 0
BBX 9 8 0 0
BITMAP
C180
F780
7F00
7E00
7E00
7F00
F780
C180
ENDCHAR
STARTCHAR Y
ENCODING 89
SWIDTH 650 0
DWIDTH 10 0
BBX 9 8 0 0
BITMAP
E380
E380
F780
7F00
7F00
1C00
1C00
1C00
ENDCHAR
STARTCHAR Z
ENCODING 90
SWIDTH 600 0
DWIDTH 10 0
BBX 9 8 0 0
BITMAP
FF80
FF80
0700
1E00
3C00
7800
FF80
FF80
ENDCHAR
STARTCHAR bracketleft
ENCODING 91
SWIDTH 400 0
DWIDTH 6 0
BBX 5 8 0 0
BITMAP
F8
F8
E0
E0
E0
E0
F8
F8
ENDCHAR
STARTCHAR backslash
ENCODING 92
SWIDTH 650 0
DWIDTH 10 0
BBX 10 8 0 0
BITMAP
E000
F000
3C00
3C00
1E00
0F00
03C0
03C0
ENDCHAR
STARTCHAR bracketright
ENCODING 93
SWIDTH 400 0
DWIDTH 6 0
BBX 5 8 0 0
BITMAP
F8
F8
38
38
38
38
F8
F8
ENDCHAR
STARTCHAR asciicircum
ENCODING 94
SWIDTH 500 0
DWIDTH 8 0
BBX 7 5 0 3
BITMAP
38
3C
7C
EE
C6
ENDCHAR
STARTCHAR underscore
ENCODING 95
SWIDTH 600 0
DWIDTH 10 0
BBX 9 2 0 -3
BITMAP
FF80
FF80
ENDCHAR
STARTCHAR grave
ENCODING 96
SWIDTH 200 0
DWIDTH 3 0
BBX 2 2 0 6
BITMAP
C0
C0
ENDCHAR
STARTCHAR a
ENCODING 97
SWIDTH 600 0
DWIDTH 10 0
BBX 9 8 0 0
BITMAP
7F00
FF80
E380
FF80
FF80
E380
E380
E380
ENDCHAR
STARTCHAR b
ENCODING 98
SWIDTH 600 0
DWIDTH 10 0
BBX 9 8 0 0
BITMAP
FF00
FF80
E380
FF00
FF00
E380
FF80
FF00
ENDCHAR
STARTCHAR c
ENCODING 99
SWIDTH 600 0
DWIDTH 10 0
BBX 9 8 0 0
BITMAP
7F00
FF80
E380
E000
E000
E380
FF80
7F00
ENDCHAR
STARTCHAR d
ENCODING 100
SWIDTH 600 0
DWIDTH 10 0
BBX 9 8 0 0
BITMAP
FF00
FF00
E780
E380
E380
E780
FF00
FE00
ENDCHAR
STARTCHAR e
ENCODING 101
SWIDTH 600 0
DWIDTH 10 0
BBX 9 8 0 0
BITMAP
7F80
FF80
E000
F800
F800
E000
FF80
7F80
ENDCHAR
STARTCHAR f
ENCODING 102
SWIDTH 600 0
DWIDTH 10 0
BBX 9 8 0 0
BITMAP
7F80
FF80
E000
F800
F800
E000
E000
E000
ENDCHAR
STARTCHAR g
ENCODING 103
SWIDTH 600 0
DWIDTH 10 0
BBX 9 8 0 0
BITMAP
7F80
FF80
E000
EF00
EF80
E380
FF80
7F00
ENDCHAR
STARTCHAR h
ENCODING 104
SWIDTH 600 0
DWIDTH 10 0
BBX 9 8 0 0
BITMAP
E380
E380
E380
FF80
FF80
E380
E380
E380
ENDCHAR
STARTCHAR i
ENCODING 105
SWIDTH 550 0
DWIDTH 9 0
BBX 7 8 0 0
BITMAP
FE
FE
38
38
38
38
FE
FE
ENDCHAR
STARTCHAR j
ENCODING 106
SWIDTH 600 0
DWIDTH 10 0
BBX 9 8 0 0
BITMAP
0380
0380
0380
0380
0380
E380
FF80
7F00
ENDCHAR
STARTCHAR k
ENCODING 107
SWIDTH 650 0
DWIDTH 10 0
BBX 9 8 0 0
BITMAP
E780
E780
FF00
FE00
FE00
FF00
E780
E780
ENDCHAR
STARTCHAR l
ENCODING 108
SWIDTH 600 0
DWIDTH 10 0
BBX 9 8 0 0
BITMAP
E000
E000
E000
E000
E000
E000
FF80
FF80
ENDCHAR
STARTCHAR m
ENCODING 109
SWIDTH 700 0
DWIDTH 11 0
BBX 10 8 0 0
BITMAP
E1C0
F3C0
FFC0
FFC0
EDC0
E9C0
E1C0
E1C0
ENDCHAR
STARTCHAR n
ENCODING 110
SWIDTH 600 0
DWIDTH 10 0
BBX 9 8 0 0
BITMAP
E380
F380
FF80
FF80
EF80
E780
E380
E380
ENDCHAR
STARTCHAR o
ENCODING 111
SWIDTH 600 0
DWIDTH 10 0
BBX 9 8 0 0
BITMAP
7F00
FF80
E380
E380
E380
E380
FF80
7F00
ENDCHAR
STARTCHAR p
ENCODING 112
SWIDTH 600 0
DWIDTH 10 0
BBX 9 8 0 0
BITMAP
FF00
FF80
E380
FF80
FF00
E000
E000
E000
ENDCHAR
STARTCHAR q
ENCODING 113
SWIDTH 600 0
DWIDTH 10 0
BBX 8 10 0 -2
BITMAP
7E
FF
E7
E7
E7
E7
E7
7E
18
18
ENDCHAR
STARTCHAR r
ENCODING 114
SWIDTH 600 0
DWIDTH 10 0
BBX 9 8 0 0
BITMAP
FF00
FF80
E380
FF00
FF00
E380
E380
E380
ENDCHAR
STARTCHAR s
ENCODING 115
SWIDTH 600 0
DWIDTH 10 0
BBX 9 8 0 0
BITMAP
7F80
FF80
E000
FF00
7F80
0380
FF80
FF00
ENDCHAR
STARTCHAR t
ENCODING 116
SWIDTH 550 0
DWIDTH 9 0
BBX 7 8 0 0
BITMAP
FE
FE
38
38
38
38
38
38
ENDCHAR
STARTCHAR u
ENCODING 117
SWIDTH 600 0
DWIDTH 10 0
BBX 9 8 0 0
BITMAP
E380
E380
E380
E380
E380
E380
FF80
7F00
ENDCHAR
STARTCHAR v
ENCODING 118
SWIDTH 600 0
DWIDTH 10 0
BBX 9 8 0 0
BITMAP
E380
E380
E380
E380
E780
EF00
FE00
FC00
ENDCHAR
STARTCHAR w
ENCODING 119
SWIDTH 700 0
DWIDTH 11 0
BBX 10 8 0 0
BITMAP
E1C0
E1C0
E9C0
EDC0
FFC0
FFC0
F3C0
E1C0
ENDCHAR
STARTCHAR x
ENCODING 120
SWIDTH 600 0
DWIDTH 10 0
BBX 9 8 0 0
BITMAP
C180
F780
7F00
7E00
7E00
7F00
F780
C180
ENDCHAR
STARTCHAR y
ENCODING 121
SWIDTH 650 0
DWIDTH 10 0
BBX 9 8 0 0
BITMAP
E380
E380
F780
7F00
7F00
1C00
1C00
1C00
ENDCHAR
STARTCHAR z
ENCODING 122
SWIDTH 600 0
DWIDTH 10 0
BBX 9 8 0 0
BITMAP
FF80
FF80
0700
1E00
3C00
7800
FF80
FF80
ENDCHAR
STARTCHAR braceleft
ENCODING 123
SWIDTH 450 0
DWIDTH 7 0
BBX 6 8 0 0
BITMAP
3C
7C
70
E0
E0
70
7C
3C
ENDCHAR
STARTCHAR bar
ENCODING 124
SWIDTH 250 0
DWIDTH 4 0
BBX 3 10 0 -1
BITMAP
E0
E0
E0
E0
E0
E0
E0
E0
E0
E0
ENDCHAR
STARTCHAR braceright
ENCODING 125
SWIDTH 450 0
DWIDTH 7 0
BBX 6 8 0 0
BITMAP
F0
F8
38
1C
1C
38
F8
F0
ENDCHAR
STARTCHAR asciitilde
ENCODING 126
SWIDTH 750 0
DWIDTH 12 0
BBX 11 4 0 2
BITMAP
7CE0
FEE0
EFE0
E7C0
ENDCHAR
STARTCHAR .0127
ENCODING 127
SWIDTH 600 0
DWIDTH 10 0
BBX 9 8 0 0
BITMAP
FF80
BE80
C980
E380
E380
C980
BE80
FF80
ENDCHAR
STARTCHAR .0128
ENCODING 128
SWIDTH 600 0
DWIDTH 10 0
BBX 9 8 0 0
BITMAP
FF80
BE80
C980
E380
E380
C980
BE80
FF80
ENDCHAR
STARTCHAR .0129
ENCODING 129
SWIDTH 600 0
DWIDTH 10 0
BBX 9 8 0 0
BITMAP
FF80
BE80
C980
E380
E380
C980
BE80
FF80
ENDCHAR
STARTCHAR .0141
ENCODING 141
SWIDTH 600 0
DWIDTH 10 0
BBX 9 8 0 0
BITMAP
FF80
BE80
C980
E380
E380
C980
BE80
FF80
ENDCHAR
STARTCHAR .0142
ENCODING 142
SWIDTH 600 0
DWIDTH 10 0
BBX 9 8 0 0
BITMAP
FF80
BE80
C980
E380
E380
C980
BE80
FF80
ENDCHAR
STARTCHAR .0143
ENCODING 143
SWIDTH 600 0
DWIDTH 10 0
BBX 9 8 0 0
BITMAP
FF80
BE80
C980
E380
E380
C980
BE80
FF80
ENDCHAR
STARTCHAR .0144
ENCODING 144
SWIDTH 600 0
DWIDTH 10 0
BBX 9 8 0 0
BITMAP
FF80
BE80
C980
E380
E380
C980
BE80
FF80
ENDCHAR
STARTCHAR .0157
ENCODING 157
SWIDTH 600 0
DWIDTH 10 0
BBX 9 8 0 0
BITMAP
FF80
BE80
C980
E380
E380
C980
BE80
FF80
ENDCHAR
STARTCHAR .0158
ENCODING 158
SWIDTH 600 0
DWIDTH 10 0
BBX 9 8 0 0
BITMAP
FF80
BE80
C980
E380
E380
C980
BE80
FF80
ENDCHAR
STARTCHAR .0160
ENCODING 160
SWIDTH 350 0
DWIDTH 6 0
BBX 1 1 0 0
BITMAP
00
ENDCHAR
STARTCHAR exclamdown
ENCODING 161
SWIDTH 250 0
DWIDTH 4 0
BBX 3 8 0 0
BITMAP
E0
E0
E0
E0
E0
E0
E0
E0
ENDCHAR
STARTCHAR cent
ENCODING 162
SWIDTH 600 0
DWIDTH 10 0
BBX 8 11 0 -2
BITMAP
18
7E
FF
E7
E0
E0
E7
E7
7E
18
18
ENDCHAR
STARTCHAR sterling
ENCODING 163
SWIDTH 650 0
DWIDTH 10 0
BBX 9 8 0 0
BITMAP
3F00
3F80
7B80
F800
F800
7380
FF80
FF00
ENDCHAR
STARTCHAR currency
ENCODING 164
SWIDTH 550 0
DWIDTH 9 0
BBX 8 8 0 0
BITMAP
C3
FB
3C
66
66
7E
FB
C3
ENDCHAR
STARTCHAR yen
ENCODING 165
SWIDTH 650 0
DWIDTH 10 0
BBX 9 10 0 -2
BITMAP
E380
E380
F780
7F00
1C00
7F00
1C00
7F00
1C00
1C00
ENDCHAR
STARTCHAR brokenbar
ENCODING 166
SWIDTH 250 0
DWIDTH 4 0
BBX 3 12 0 -2
BITMAP
E0
E0
E0
E0
E0
00
00
E0
E0
E0
E0
E0
ENDCHAR
STARTCHAR section
ENCODING 167
SWIDTH 600 0
DWIDTH 10 0
BBX 9 12 0 -2
BITMAP
7F80
FF80
E000
FF00
FF80
E380
E380
FF80
7F80
0380
FF80
FF00
ENDCHAR
STARTCHAR dieresis
ENCODING 168
SWIDTH 450 0
DWIDTH 7 0
BBX 6 2 0 10
BITMAP
CC
CC
ENDCHAR
STARTCHAR copyright
ENCODING 169
SWIDTH 750 0
DWIDTH 12 0
BBX 11 8 0 0
BITMAP
7FC0
FFE0
E6E0
ECE0
ECE0
E6E0
FFE0
7FC0
ENDCHAR
STARTCHAR ordfeminine
ENCODING 170
SWIDTH 350 0
DWIDTH 6 0
BBX 5 4 0 4
BITMAP
F8
F8
98
F8
ENDCHAR
STARTCHAR guillemotleft
ENCODING 171
SWIDTH 550 0
DWIDTH 9 0
BBX 8 6 0 1
BITMAP
33
33
CC
CC
33
33
ENDCHAR
STARTCHAR logicalnot
ENCODING 172
SWIDTH 400 0
DWIDTH 6 0
BBX 5 3 0 2
BITMAP
F8
F8
18
ENDCHAR
STARTCHAR hyphen
ENCODING 173
SWIDTH 250 0
DWIDTH 4 0
BBX 3 2 0 3
BITMAP
E0
E0
ENDCHAR
STARTCHAR registered
ENCODING 174
SWIDTH 750 0
DWIDTH 12 0
BBX 11 8 0 0
BITMAP
7FC0
FFE0
E0E0
EEE0
EEE0
EEE0
FFE0
7FC0
ENDCHAR
STARTCHAR macron
ENCODING 175
SWIDTH 600 0
DWIDTH 10 0
BBX 9 2 0 9
BITMAP
FF80
FF80
ENDCHAR
STARTCHAR degree
ENCODING 176
SWIDTH 400 0
DWIDTH 6 0
BBX 6 3 0 9
BITMAP
FC
CC
FC
ENDCHAR
STARTCHAR plusminus
ENCODING 177
SWIDTH 600 0
DWIDTH 10 0
BBX 9 8 0 0
BITMAP
1800
FF00
FF00
1800
1800
0000
FF80
FF80
ENDCHAR
STARTCHAR twosuperior
ENCODING 178
SWIDTH 350 0
DWIDTH 6 0
BBX 5 4 0 4
BITMAP
F8
F8
C0
F8
ENDCHAR
STARTCHAR threesuperior
ENCODING 179
SWIDTH 350 0
DWIDTH 6 0
BBX 5 4 0 4
BITMAP
F8
F8
18
F8
ENDCHAR
STARTCHAR acute
ENCODING 180
SWIDTH 250 0
DWIDTH 4 0
BBX 3 3 0 9
BITMAP
20
E0
C0
ENDCHAR
STARTCHAR mu
ENCODING 181
SWIDTH 600 0
DWIDTH 10 0
BBX 9 10 0 -2
BITMAP
E380
E380
E380
E380
E380
E380
FF80
FF00
E000
E000
ENDCHAR
STARTCHAR paragraph
ENCODING 182
SWIDTH 450 0
DWIDTH 7 0
BBX 7 8 0 0
BITMAP
7E
FE
EC
EC
6C
6C
6C
6C
ENDCHAR
STARTCHAR periodcentered
ENCODING 183
SWIDTH 250 0
DWIDTH 4 0
BBX 3 3 0 2
BITMAP
E0
E0
E0
ENDCHAR
STARTCHAR cedilla
ENCODING 184
SWIDTH 250 0
DWIDTH 4 0
BBX 3 2 0 -2
BITMAP
60
E0
ENDCHAR
STARTCHAR onesuperior
ENCODING 185
SWIDTH 150 0
DWIDTH 2 0
BBX 2 4 0 4
BITMAP
C0
C0
C0
C0
ENDCHAR
STARTCHAR ordmasculine
ENCODING 186
SWIDTH 350 0
DWIDTH 6 0
BBX 5 4 0 4
BITMAP
F8
D8
D8
F8
ENDCHAR
STARTCHAR guillemotright
ENCODING 187
SWIDTH 550 0
DWIDTH 9 0
BBX 8 6 0 1
BITMAP
CC
CC
33
33
66
CC
ENDCHAR
STARTCHAR onequarter
ENCODING 188
SWIDTH 650 0
DWIDTH 10 0
BBX 10 8 0 0
BITMAP
C3C0
C7C0
CF80
1E00
3C00
FAC0
F3C0
E0C0
ENDCHAR
STARTCHAR onehalf
ENCODING 189
SWIDTH 650 0
DWIDTH 10 0
BBX 10 8 0 0
BITMAP
C3C0
C7C0
CF80
1E00
3C00
7BC0
F180
E380
ENDCHAR
STARTCHAR threequarters
ENCODING 190
SWIDTH 650 0
DWIDTH 10 0
BBX 10 8 0 0
BITMAP
E3C0
67C0
EF00
1E00
3C00
7AC0
F3C0
E0C0
ENDCHAR
STARTCHAR questiondown
ENCODING 191
SWIDTH 600 0
DWIDTH 10 0
BBX 8 8 0 0
BITMAP
18
18
00
18
F0
E7
FF
7E
ENDCHAR
STARTCHAR Agrave
ENCODING 192
SWIDTH 600 0
DWIDTH 10 0
BBX 9 12 0 0
BITMAP
3000
3800
0C00
0000
7F00
FF80
E380
FF80
FF80
E380
E380
E380
ENDCHAR
STARTCHAR Aacute
ENCODING 193
SWIDTH 600 0
DWIDTH 10 0
BBX 9 12 0 0
BITMAP
0600
0E00
1800
0000
7F00
FF80
E380
FF80
FF80
E380
E380
E380
ENDCHAR
STARTCHAR Acircumflex
ENCODING 194
SWIDTH 600 0
DWIDTH 10 0
BBX 9 12 0 0
BITMAP
0800
3600
7300
0000
7F00
FF80
E380
FF80
FF80
E380
E380
E380
ENDCHAR
STARTCHAR Atilde
ENCODING 195
SWIDTH 600 0
DWIDTH 10 0
BBX 8 12 0 0
BITMAP
26
76
6E
00
7E
FF
E7
FF
FF
E7
E7
E7
ENDCHAR
STARTCHAR Adieresis
ENCODING 196
SWIDTH 600 0
DWIDTH 10 0
BBX 9 12 0 0
BITMAP
6300
6300
0000
0000
7F00
FF80
E380
FF80
FF80
E380
E380
E380
ENDCHAR
STARTCHAR Aring
ENCODING 197
SWIDTH 600 0
DWIDTH 10 0
BBX 8 12 0 0
BITMAP
7E
66
7E
00
7E
FF
E7
FF
FF
E7
E7
E7
ENDCHAR
STARTCHAR AE
ENCODING 198
SWIDTH 700 0
DWIDTH 11 0
BBX 10 8 0 0
BITMAP
7FC0
FFC0
CC00
FF00
FF00
CC00
CFC0
CFC0
ENDCHAR
STARTCHAR Ccedilla
ENCODING 199
SWIDTH 600 0
DWIDTH 10 0
BBX 8 10 0 -2
BITMAP
7E
FF
E7
E0
E0
E7
E7
7E
18
38
ENDCHAR
STARTCHAR Egrave
ENCODING 200
SWIDTH 600 0
DWIDTH 10 0
BBX 9 12 0 0
BITMAP
3000
3800
0800
0000
7F80
FF80
E000
F800
F800
E000
FF80
7F80
ENDCHAR
STARTCHAR Eacute
ENCODING 201
SWIDTH 600 0
DWIDTH 10 0
BBX 9 12 0 0
BITMAP
0C00
0C00
1000
0000
7F80
FF80
E000
F800
F800
E000
FF80
7F80
ENDCHAR
STARTCHAR Ecircumflex
ENCODING 202
SWIDTH 600 0
DWIDTH 10 0
BBX 9 12 0 0
BITMAP
0800
3400
7600
0000
7F80
FF80
E000
F800
F800
E000
FF80
7F80
ENDCHAR
STARTCHAR Edieresis
ENCODING 203
SWIDTH 600 0
DWIDTH 10 0
BBX 9 12 0 0
BITMAP
6300
6300
0000
0000
7F80
FF80
E000
FC00
FC00
E000
FF80
7F80
ENDCHAR
STARTCHAR Igrave
ENCODING 204
SWIDTH 550 0
DWIDTH 9 0
BBX 7 12 0 0
BITMAP
30
30
18
00
FE
FE
38
38
38
38
FE
FE
ENDCHAR
STARTCHAR Iacute
ENCODING 205
SWIDTH 550 0
DWIDTH 9 0
BBX 7 12 0 0
BITMAP
18
18
30
00
FE
FE
38
38
38
38
FE
FE
ENDCHAR
STARTCHAR Icircumflex
ENCODING 206
SWIDTH 550 0
DWIDTH 9 0
BBX 7 12 0 0
BITMAP
38
6C
C6
00
FE
FE
38
38
38
38
FE
FE
ENDCHAR
STARTCHAR Idieresis
ENCODING 207
SWIDTH 550 0
DWIDTH 9 0
BBX 7 12 0 0
BITMAP
66
66
00
00
FE
FE
38
38
38
38
FE
FE
ENDCHAR
STARTCHAR Eth
ENCODING 208
SWIDTH 650 0
DWIDTH 10 0
BBX 9 8 0 0
BITMAP
7F00
7F00
7780
FB80
FB80
7780
7F00
7F00
ENDCHAR
STARTCHAR Ntilde
ENCODING 209
SWIDTH 600 0
DWIDTH 10 0
BBX 8 12 0 0
BITMAP
36
76
6E
00
E7
F7
FF
FF
EF
E7
E7
E7
ENDCHAR
STARTCHAR Ograve
ENCODING 210
SWIDTH 600 0
DWIDTH 10 0
BBX 9 12 0 0
BITMAP
3000
3800
0C00
0000
7F00
FF80
E380
E380
E380
E380
FF80
7F00
ENDCHAR
STARTCHAR Oacute
ENCODING 211
SWIDTH 600 0
DWIDTH 10 0
BBX 9 12 0 0
BITMAP
0600
0E00
1800
0000
7F00
FF80
E380
E380
E380
E380
FF80
7F00
ENDCHAR
STARTCHAR Ocircumflex
ENCODING 212
SWIDTH 600 0
DWIDTH 10 0
BBX 9 12 0 0
BITMAP
0800
3600
7300
0000
7F00
FF80
E380
E380
E380
E380
FF80
7F00
ENDCHAR
STARTCHAR Otilde
ENCODING 213
SWIDTH 600 0
DWIDTH 10 0
BBX 8 12 0 0
BITMAP
26
76
6E
00
7E
FF
E7
E7
E7
E7
FF
7E
ENDCHAR
STARTCHAR Odieresis
ENCODING 214
SWIDTH 600 0
DWIDTH 10 0
BBX 9 12 0 0
BITMAP
6300
6300
0000
0000
7F00
FF80
E380
E380
E380
E380
FF80
7F00
ENDCHAR
STARTCHAR multiply
ENCODING 215
SWIDTH 450 0
DWIDTH 7 0
BBX 7 6 0 1
BITMAP
C6
CE
38
38
CE
C6
ENDCHAR
STARTCHAR Oslash
ENCODING 216
SWIDTH 600 0
DWIDTH 10 0
BBX 9 12 0 -2
BITMAP
0180
0180
7F00
FF80
E780
EF80
FB80
F380
FF80
7F00
C000
C000
ENDCHAR
STARTCHAR Ugrave
ENCODING 217
SWIDTH 600 0
DWIDTH 10 0
BBX 9 12 0 0
BITMAP
3000
3800
0C00
0000
E380
E380
E380
E380
E380
E380
FF80
7F00
ENDCHAR
STARTCHAR Uacute
ENCODING 218
SWIDTH 600 0
DWIDTH 10 0
BBX 9 12 0 0
BITMAP
0600
0E00
1800
0000
E380
E380
E380
E380
E380
E380
FF80
7F00
ENDCHAR
STARTCHAR Ucircumflex
ENCODING 219
SWIDTH 600 0
DWIDTH 10 0
BBX 9 12 0 0
BITMAP
0800
3600
7300
0000
E380
E380
E380
E380
E380
E380
FF80
7F00
ENDCHAR
STARTCHAR Udieresis
ENCODING 220
SWIDTH 600 0
DWIDTH 10 0
BBX 9 12 0 0
BITMAP
6300
6300
0000
0000
E380
E380
E380
E380
E380
E380
FF80
7F00
ENDCHAR
STARTCHAR Yacute
ENCODING 221
SWIDTH 650 0
DWIDTH 10 0
BBX 9 12 0 0
BITMAP
0C00
0C00
1800
0000
E380
E380
F780
7F00
7F00
1C00
1C00
1C00
ENDCHAR
STARTCHAR Thorn
ENCODING 222
SWIDTH 600 0
DWIDTH 10 0
BBX 9 8 0 0
BITMAP
E000
FF00
FF80
E380
E380
FF80
FF00
E000
ENDCHAR
STARTCHAR germandbls
ENCODING 223
SWIDTH 600 0
DWIDTH 10 0
BBX 9 8 0 0
BITMAP
7F00
FF80
E380
EF00
EF00
E380
EF80
6F00
ENDCHAR
STARTCHAR agrave
ENCODING 224
SWIDTH 600 0
DWIDTH 10 0
BBX 9 12 0 0
BITMAP
3000
3800
0C00
0000
7F00
FF80
E380
FF80
FF80
E380
E380
E380
ENDCHAR
STARTCHAR aacute
ENCODING 225
SWIDTH 600 0
DWIDTH 10 0
BBX 9 12 0 0
BITMAP
0600
0E00
1800
0000
7F00
FF80
E380
FF80
FF80
E380
E380
E380
ENDCHAR
STARTCHAR acircumflex
ENCODING 226
SWIDTH 600 0
DWIDTH 10 0
BBX 9 12 0 0
BITMAP
0800
3600
7300
0000
7F00
FF80
E380
FF80
FF80
E380
E380
E380
ENDCHAR
STARTCHAR atilde
ENCODING 227
SWIDTH 600 0
DWIDTH 10 0
BBX 8 12 0 0
BITMAP
26
76
6E
00
7E
FF
E7
FF
FF
E7
E7
E7
ENDCHAR
STARTCHAR adieresis
ENCODING 228
SWIDTH 600 0
DWIDTH 10 0
BBX 9 12 0 0
BITMAP
6300
6300
0000
0000
7F00
FF80
E380
FF80
FF80
E380
E380
E380
ENDCHAR
STARTCHAR aring
ENCODING 229
SWIDTH 600 0
DWIDTH 10 0
BBX 8 12 0 0
BITMAP
7E
66
7E
00
7E
FF
E7
FF
FF
E7
E7
E7
ENDCHAR
STARTCHAR ae
ENCODING 230
SWIDTH 700 0
DWIDTH 11 0
BBX 10 8 0 0
BITMAP
7FC0
FFC0
CC00
FF00
FF00
CC00
CFC0
CFC0
ENDCHAR
STARTCHAR ccedilla
ENCODING 231
SWIDTH 600 0
DWIDTH 10 0
BBX 8 10 0 -2
BITMAP
7E
FF
E7
E0
E0
E7
E7
7E
18
38
ENDCHAR
STARTCHAR egrave
ENCODING 232
SWIDTH 600 0
DWIDTH 10 0
BBX 9 12 0 0
BITMAP
3000
3800
0800
0000
7F80
FF80
E000
F800
F800
E000
FF80
7F80
ENDCHAR
STARTCHAR eacute
ENCODING 233
SWIDTH 600 0
DWIDTH 10 0
BBX 9 12 0 0
BITMAP
0C00
0C00
1000
0000
7F80
FF80
E000
F800
F800
E000
FF80
7F80
ENDCHAR
STARTCHAR ecircumflex
ENCODING 234
SWIDTH 600 0
DWIDTH 10 0
BBX 9 12 0 0
BITMAP
0800
3400
7600
0000
7F80
FF80
E000
F800
F800
E000
FF80
7F80
ENDCHAR
STARTCHAR edieresis
ENCODING 235
SWIDTH 600 0
DWIDTH 10 0
BBX 9 12 0 0
BITMAP
6300
6300
0000
0000
7F80
FF80
E000
FC00
FC00
E000
FF80
7F80
ENDCHAR
STARTCHAR igrave
ENCODING 236
SWIDTH 550 0
DWIDTH 9 0
BBX 7 12 0 0
BITMAP
30
30
18
00
FE
FE
38
38
38
38
FE
FE
ENDCHAR
STARTCHAR iacute
ENCODING 237
SWIDTH 550 0
DWIDTH 9 0
BBX 7 12 0 0
BITMAP
18
18
30
00
FE
FE
38
38
38
38
FE
FE
ENDCHAR
STARTCHAR icircumflex
ENCODING 238
SWIDTH 550 0
DWIDTH 9 0
BBX 7 12 0 0
BITMAP
38
6C
C6
00
FE
FE
38
38
38
38
FE
FE
ENDCHAR
STARTCHAR idieresis
ENCODING 239
SWIDTH 550 0
DWIDTH 9 0
BBX 7 12 0 0
BITMAP
66
66
00
00
FE
FE
38
38
38
38
FE
FE
ENDCHAR
STARTCHAR eth
ENCODING 240
SWIDTH 650 0
DWIDTH 10 0
BBX 9 8 0 0
BITMAP
7F00
7F00
7780
FB80
FB80
7780
7F00
7F00
ENDCHAR
STARTCHAR ntilde
ENCODING 241
SWIDTH 600 0
DWIDTH 10 0
BBX 8 12 0 0
BITMAP
36
76
6E
00
E7
F7
FF
FF
EF
E7
E7
E7
ENDCHAR
STARTCHAR ograve
ENCODING 242
SWIDTH 600 0
DWIDTH 10 0
BBX 9 12 0 0
BITMAP
3000
3800
0C00
0000
7F00
FF80
E380
E380
E380
E380
FF80
7F00
ENDCHAR
STARTCHAR oacute
ENCODING 243
SWIDTH 600 0
DWIDTH 10 0
BBX 9 12 0 0
BITMAP
0600
0E00
1800
0000
7F00
FF80
E380
E380
E380
E380
FF80
7F00
ENDCHAR
STARTCHAR ocircumflex
ENCODING 244
SWIDTH 600 0
DWIDTH 10 0
BBX 9 12 0 0
BITMAP
0800
3600
7300
0000
7F00
FF80
E380
E380
E380
E380
FF80
7F00
ENDCHAR
STARTCHAR otilde
ENCODING 245
SWIDTH 600 0
DWIDTH 10 0
BBX 8 12 0 0
BITMAP
26
76
6E
00
7E
FF
E7
E7
E7
E7
FF
7E
ENDCHAR
STARTCHAR odieresis
ENCODING 246
SWIDTH 600 0
DWIDTH 10 0
BBX 9 12 0 0
BITMAP
6300
6300
0000
0000
7F00
FF80
E380
E380
E380
E380
FF80
7F00
ENDCHAR
STARTCHAR divide
ENCODING 247
SWIDTH 500 0
DWIDTH 8 0
BBX 7 8 0 0
BITMAP
18
18
00
FE
FE
00
18
18
ENDCHAR
STARTCHAR oslash
ENCODING 248
SWIDTH 600 0
DWIDTH 10 0
BBX 9 12 0 -2
BITMAP
0180
0180
7F00
FF80
E780
EF80
FB80
F380
FF80
7F00
C000
C000
ENDCHAR
STARTCHAR ugrave
ENCODING 249
SWIDTH 600 0
DWIDTH 10 0
BBX 9 12 0 0
BITMAP
3000
3800
0C00
0000
E380
E380
E380
E380
E380
E380
FF80
7F00
ENDCHAR
STARTCHAR uacute
ENCODING 250
SWIDTH 600 0
DWIDTH 10 0
BBX 9 12 0 0
BITMAP
0600
0E00
1800
0000
E380
E380
E380
E380
E380
E380
FF80
7F00
ENDCHAR
STARTCHAR ucircumflex
ENCODING 251
SWIDTH 600 0
DWIDTH 10 0
BBX 9 12 0 0
BITMAP
0800
3600
7300
0000
E380
E380
E380
E380
E380
E380
FF80
7F00
ENDCHAR
STARTCHAR udieresis
ENCODING 252
SWIDTH 600 0
DWIDTH 10 0
BBX 9 12 0 0
BITMAP
6300
6300
0000
0000
E380
E380
E380
E380
E380
E380
FF80
7F00
ENDCHAR
STARTCHAR yacute
ENCODING 253
SWIDTH 650 0
DWIDTH 10 0
BBX 9 12 0 0
BITMAP
0C00
0C00
1800
0000
E380
E380
F780
7F00
7F00
1C00
1C00
1C00
ENDCHAR
STARTCHAR thorn
ENCODING 254
SWIDTH 600 0
DWIDTH 10 0
BBX 9 12 0 -2
BITMAP
E000
E000
E000
FF00
FF80
E380
E380
FF80
FF00
E000
E000
E000
ENDCHAR
STARTCHAR ydieresis
ENCODING 255
SWIDTH 650 0
DWIDTH 10 0
BBX 9 12 0 0
BITMAP
3300
3300
0000
0000
E380
E380
F380
7F80
3F00
1C00
1C00
1C00
ENDCHAR
STARTCHAR OE
ENCODING 338
SWIDTH 700 0
DWIDTH 11 0
BBX 10 8 0 0
BITMAP
7FC0
FFC0
CC00
CF00
CF00
CC00
FFC0
7FC0
ENDCHAR
STARTCHAR oe
ENCODING 339
SWIDTH 700 0
DWIDTH 11 0
BBX 10 8 0 0
BITMAP
7FC0
FFC0
CC00
CF00
CF00
CC00
FFC0
7FC0
ENDCHAR
STARTCHAR Scaron
ENCODING 352
SWIDTH 600 0
DWIDTH 10 0
BBX 9 12 0 0
BITMAP
6300
3600
0800
0000
7F80
FF80
E000
FF00
7F80
0380
FF80
FF00
ENDCHAR
STARTCHAR scaron
ENCODING 353
SWIDTH 600 0
DWIDTH 10 0
BBX 9 12 0 0
BITMAP
6300
3600
0800
0000
7F80
FF80
E000
FF00
7F80
0380
FF80
FF00
ENDCHAR
STARTCHAR Ydieresis
ENCODING 376
SWIDTH 650 0
DWIDTH 10 0
BBX 9 12 0 0
BITMAP
3300
3300
0000
0000
E380
E380
F380
7F80
3F00
1C00
1C00
1C00
ENDCHAR
STARTCHAR florin
ENCODING 402
SWIDTH 450 0
DWIDTH 7 0
BBX 6 10 0 -2
BITMAP
3C
7C
70
F8
F8
70
70
70
70
E0
ENDCHAR
STARTCHAR circumflex
ENCODING 710
SWIDTH 400 0
DWIDTH 6 0
BBX 6 3 0 9
BITMAP
20
58
CC
ENDCHAR
STARTCHAR tilde
ENCODING 732
SWIDTH 400 0
DWIDTH 6 0
BBX 6 3 0 9
BITMAP
4C
EC
DC
ENDCHAR
STARTCHAR endash
ENCODING 8211
SWIDTH 250 0
DWIDTH 4 0
BBX 3 2 0 3
BITMAP
E0
E0
ENDCHAR
STARTCHAR emdash
ENCODING 8212
SWIDTH 600 0
DWIDTH 10 0
BBX 9 2 0 3
BITMAP
FF80
FF80
ENDCHAR
STARTCHAR quoteleft
ENCODING 8216
SWIDTH 250 0
DWIDTH 4 0
BBX 3 3 0 6
BITMAP
C0
E0
E0
ENDCHAR
STARTCHAR quoteright
ENCODING 8217
SWIDTH 250 0
DWIDTH 4 0
BBX 3 3 0 6
BITMAP
E0
E0
60
ENDCHAR
STARTCHAR quotesinglbase
ENCODING 8218
SWIDTH 200 0
DWIDTH 3 0
BBX 2 3 0 -2
BITMAP
C0
C0
C0
ENDCHAR
STARTCHAR quotedblleft
ENCODING 8220
SWIDTH 500 0
DWIDTH 8 0
BBX 7 3 0 6
BITMAP
CC
EE
EE
ENDCHAR
STARTCHAR quotedblright
ENCODING 8221
SWIDTH 500 0
DWIDTH 8 0
BBX 7 3 0 6
BITMAP
EE
EE
66
ENDCHAR
STARTCHAR quotedblbase
ENCODING 8222
SWIDTH 400 0
DWIDTH 6 0
BBX 5 3 0 -2
BITMAP
D8
D8
D8
ENDCHAR
STARTCHAR dagger
ENCODING 8224
SWIDTH 600 0
DWIDTH 10 0
BBX 8 8 0 0
BITMAP
18
FF
FF
18
18
18
18
18
ENDCHAR
STARTCHAR daggerdbl
ENCODING 8225
SWIDTH 600 0
DWIDTH 10 0
BBX 8 8 0 0
BITMAP
18
FF
FF
18
18
FF
FF
18
ENDCHAR
STARTCHAR bullet
ENCODING 8226
SWIDTH 400 0
DWIDTH 6 0
BBX 6 6 0 1
BITMAP
20
30
FC
FC
78
30
ENDCHAR
STARTCHAR ellipsis
ENCODING 8230
SWIDTH 450 0
DWIDTH 7 0
BBX 7 2 0 0
BITMAP
F6
F6
ENDCHAR
STARTCHAR perthousand
ENCODING 8240
SWIDTH 950 0
DWIDTH 15 0
BBX 14 8 0 0
BITMAP
F780
FF80
0F00
3E00
7800
FFBC
F6B4
E7BC
ENDCHAR
STARTCHAR guilsinglleft
ENCODING 8249
SWIDTH 300 0
DWIDTH 5 0
BBX 4 6 0 1
BITMAP
30
70
C0
C0
70
30
ENDCHAR
STARTCHAR guilsinglright
ENCODING 8250
SWIDTH 300 0
DWIDTH 5 0
BBX 4 6 0 1
BITMAP
C0
E0
30
30
E0
C0
ENDCHAR
STARTCHAR trademark
ENCODING 8482
SWIDTH 750 0
DWIDTH 12 0
BBX 12 5 -1 3
BITMAP
FF30
FFF0
33F0
33B0
0330
ENDCHAR
STARTCHAR periodcentered.dup1
ENCODING 8729
SWIDTH 250 0
DWIDTH 4 0
BBX 3 3 0 2
BITMAP
E0
E0
E0
ENDCHAR
STARTCHAR .null
ENCODING 57344
SWIDTH 0 0
DWIDTH 0 0
BBX 1 1 0 0
BITMAP
00
ENDCHAR
STARTCHAR nonmarkingreturn
ENCODING 57345
SWIDTH 500 0
DWIDTH 8 0
BBX 1 1 0 0
BITMAP
00
ENDCHAR
STARTCHAR .notdef
ENCODING -1
SWIDTH 736 0
DWIDTH 12 0
BBX 12 12 0 0
BITMAP
5BE0
FFE0
F020
6120
6BE0
69E0
6020
61E0
C9F0
5820
FFE0
6EA0
ENDCHAR
ENDFONT
